<svg width="18" height="18" viewBox="0 0 18 18" fill="none" xmlns="http://www.w3.org/2000/svg">
<path d="M17.1295 16.1722L14.265 13.3716L14.1978 13.2695C14.073 13.1452 13.9023 13.0752 13.7241 13.0752C13.546 13.0752 13.3753 13.1452 13.2505 13.2695C10.8161 15.5029 7.06496 15.6243 4.48484 13.5532C1.90472 11.4821 1.29623 7.86122 3.06291 5.09189C4.82959 2.32256 8.42323 1.26412 11.4605 2.61853C14.4979 3.97294 16.0363 7.31991 15.0557 10.4397C14.9851 10.6651 15.0428 10.9102 15.2071 11.0827C15.3715 11.2552 15.6174 11.3289 15.8524 11.276C16.0873 11.2231 16.2756 11.0517 16.3462 10.8263C17.5185 7.12395 15.748 3.13971 12.1799 1.45096C8.61191 -0.237784 4.3172 0.875768 2.07405 4.07126C-0.169104 7.26676 0.312486 11.5852 3.20728 14.233C6.10207 16.8808 10.5413 17.0633 13.6533 14.6625L16.1895 17.1422C16.4515 17.3972 16.875 17.3972 17.1369 17.1422C17.3986 16.8836 17.3986 16.4672 17.1369 16.2087L17.1295 16.1722Z" fill="#667085"/>
</svg>
